solid temp
   facet normal 0.000000e+00 1.000000e+00 0.000000e+00
      outer loop
         vertex 5.000000e-01 5.000000e-01 0.000000e+00
         vertex 5.000000e-01 5.000000e-01 2.500000e-02
         vertex 9.900000e-01 5.000000e-01 0.000000e+00
      endloop
   endfacet
   facet normal 0.000000e+00 1.000000e+00 -0.000000e+00
      outer loop
         vertex 9.900000e-01 5.000000e-01 0.000000e+00
         vertex 5.000000e-01 5.000000e-01 2.500000e-02
         vertex 9.900000e-01 5.000000e-01 2.500000e-02
      endloop
   endfacet
   facet normal 1.000000e+00 -0.000000e+00 0.000000e+00
      outer loop
         vertex 1.000000e+00 0.000000e+00 2.500000e-02
         vertex 1.000000e+00 0.000000e+00 0.000000e+00
         vertex 1.000000e+00 2.450000e-01 2.500000e-02
      endloop
   endfacet
   facet normal 1.000000e+00 0.000000e+00 0.000000e+00
      outer loop
         vertex 1.000000e+00 2.450000e-01 2.500000e-02
         vertex 1.000000e+00 0.000000e+00 0.000000e+00
         vertex 1.000000e+00 2.450000e-01 0.000000e+00
      endloop
   endfacet
   facet normal 1.000000e+00 0.000000e+00 0.000000e+00
      outer loop
         vertex 1.000000e+00 2.450000e-01 0.000000e+00
         vertex 1.000000e+00 2.550000e-01 0.000000e+00
         vertex 1.000000e+00 2.450000e-01 2.500000e-02
      endloop
   endfacet
   facet normal 1.000000e+00 -0.000000e+00 0.000000e+00
      outer loop
         vertex 1.000000e+00 2.450000e-01 2.500000e-02
         vertex 1.000000e+00 2.550000e-01 0.000000e+00
         vertex 1.000000e+00 2.550000e-01 2.500000e-02
      endloop
   endfacet
   facet normal -1.000000e+00 -3.628583e-17 -0.000000e+00
      outer loop
         vertex 6.162976e-33 0.000000e+00 2.500000e-02
         vertex -3.628583e-17 1.000000e+00 2.500000e-02
         vertex 6.162976e-33 0.000000e+00 0.000000e+00
      endloop
   endfacet
   facet normal -1.000000e+00 -3.628583e-17 0.000000e+00
      outer loop
         vertex 6.162976e-33 0.000000e+00 0.000000e+00
         vertex -3.628583e-17 1.000000e+00 2.500000e-02
         vertex -3.628583e-17 1.000000e+00 0.000000e+00
      endloop
   endfacet
   facet normal -0.000000e+00 -1.000000e+00 -0.000000e+00
      outer loop
         vertex 1.000000e+00 0.000000e+00 2.500000e-02
         vertex 0.000000e+00 0.000000e+00 2.500000e-02
         vertex 1.000000e+00 0.000000e+00 0.000000e+00
      endloop
   endfacet
   facet normal 0.000000e+00 -1.000000e+00 0.000000e+00
      outer loop
         vertex 1.000000e+00 0.000000e+00 0.000000e+00
         vertex 0.000000e+00 0.000000e+00 2.500000e-02
         vertex 0.000000e+00 0.000000e+00 0.000000e+00
      endloop
   endfacet
   facet normal 1.000000e+00 0.000000e+00 0.000000e+00
      outer loop
         vertex 1.000000e+00 2.550000e-01 0.000000e+00
         vertex 1.000000e+00 5.000000e-01 0.000000e+00
         vertex 1.000000e+00 2.550000e-01 2.500000e-02
      endloop
   endfacet
   facet normal 1.000000e+00 -0.000000e+00 0.000000e+00
      outer loop
         vertex 1.000000e+00 2.550000e-01 2.500000e-02
         vertex 1.000000e+00 5.000000e-01 0.000000e+00
         vertex 1.000000e+00 5.000000e-01 2.500000e-02
      endloop
   endfacet
   facet normal -0.000000e+00 1.000000e+00 0.000000e+00
      outer loop
         vertex 9.900000e-01 5.000000e-01 2.500000e-02
         vertex 1.000000e+00 5.000000e-01 2.500000e-02
         vertex 9.900000e-01 5.000000e-01 0.000000e+00
      endloop
   endfacet
   facet normal 0.000000e+00 1.000000e+00 0.000000e+00
      outer loop
         vertex 9.900000e-01 5.000000e-01 0.000000e+00
         vertex 1.000000e+00 5.000000e-01 2.500000e-02
         vertex 1.000000e+00 5.000000e-01 0.000000e+00
      endloop
   endfacet
   facet normal 1.000000e+00 0.000000e+00 0.000000e+00
      outer loop
         vertex 5.000000e-01 1.000000e+00 2.500000e-02
         vertex 5.000000e-01 5.000000e-01 2.500000e-02
         vertex 5.000000e-01 1.000000e+00 0.000000e+00
      endloop
   endfacet
   facet normal 1.000000e+00 0.000000e+00 0.000000e+00
      outer loop
         vertex 5.000000e-01 1.000000e+00 0.000000e+00
         vertex 5.000000e-01 5.000000e-01 2.500000e-02
         vertex 5.000000e-01 5.000000e-01 0.000000e+00
      endloop
   endfacet
   facet normal -0.000000e+00 1.000000e+00 0.000000e+00
      outer loop
         vertex 0.000000e+00 1.000000e+00 2.500000e-02
         vertex 5.000000e-01 1.000000e+00 2.500000e-02
         vertex 0.000000e+00 1.000000e+00 0.000000e+00
      endloop
   endfacet
   facet normal 0.000000e+00 1.000000e+00 0.000000e+00
      outer loop
         vertex 0.000000e+00 1.000000e+00 0.000000e+00
         vertex 5.000000e-01 1.000000e+00 2.500000e-02
         vertex 5.000000e-01 1.000000e+00 0.000000e+00
      endloop
   endfacet
   facet normal 0.000000e+00 0.000000e+00 1.000000e+00
      outer loop
         vertex 0.000000e+00 0.000000e+00 2.500000e-02
         vertex 1.000000e+00 0.000000e+00 2.500000e-02
         vertex 1.000000e+00 2.450000e-01 2.500000e-02
      endloop
   endfacet
   facet normal 0.000000e+00 -0.000000e+00 1.000000e+00
      outer loop
         vertex 1.000000e+00 2.550000e-01 2.500000e-02
         vertex 1.000000e+00 5.000000e-01 2.500000e-02
         vertex 9.900000e-01 5.000000e-01 2.500000e-02
      endloop
   endfacet
   facet normal 0.000000e+00 0.000000e+00 1.000000e+00
      outer loop
         vertex 5.000000e-01 1.000000e+00 2.500000e-02
         vertex -3.628583e-17 1.000000e+00 2.500000e-02
         vertex 5.000000e-01 5.000000e-01 2.500000e-02
      endloop
   endfacet
   facet normal 0.000000e+00 0.000000e+00 1.000000e+00
      outer loop
         vertex 5.000000e-01 5.000000e-01 2.500000e-02
         vertex -3.628583e-17 1.000000e+00 2.500000e-02
         vertex 0.000000e+00 0.000000e+00 2.500000e-02
      endloop
   endfacet
   facet normal -0.000000e+00 0.000000e+00 1.000000e+00
      outer loop
         vertex 5.000000e-01 5.000000e-01 2.500000e-02
         vertex 0.000000e+00 0.000000e+00 2.500000e-02
         vertex 9.900000e-01 5.000000e-01 2.500000e-02
      endloop
   endfacet
   facet normal 0.000000e+00 0.000000e+00 1.000000e+00
      outer loop
         vertex 9.900000e-01 5.000000e-01 2.500000e-02
         vertex 0.000000e+00 0.000000e+00 2.500000e-02
         vertex 1.000000e+00 2.450000e-01 2.500000e-02
      endloop
   endfacet
   facet normal 0.000000e+00 0.000000e+00 1.000000e+00
      outer loop
         vertex 9.900000e-01 5.000000e-01 2.500000e-02
         vertex 1.000000e+00 2.450000e-01 2.500000e-02
         vertex 1.000000e+00 2.550000e-01 2.500000e-02
      endloop
   endfacet
   facet normal 0.000000e+00 -0.000000e+00 -1.000000e+00
      outer loop
         vertex 1.000000e+00 2.450000e-01 0.000000e+00
         vertex 1.000000e+00 0.000000e+00 0.000000e+00
         vertex 0.000000e+00 0.000000e+00 0.000000e+00
      endloop
   endfacet
   facet normal 0.000000e+00 0.000000e+00 -1.000000e+00
      outer loop
         vertex -3.628583e-17 1.000000e+00 0.000000e+00
         vertex 5.000000e-01 1.000000e+00 0.000000e+00
         vertex 0.000000e+00 0.000000e+00 0.000000e+00
      endloop
   endfacet
   facet normal 0.000000e+00 0.000000e+00 -1.000000e+00
      outer loop
         vertex 0.000000e+00 0.000000e+00 0.000000e+00
         vertex 5.000000e-01 1.000000e+00 0.000000e+00
         vertex 5.000000e-01 5.000000e-01 0.000000e+00
      endloop
   endfacet
   facet normal 0.000000e+00 0.000000e+00 -1.000000e+00
      outer loop
         vertex 0.000000e+00 0.000000e+00 0.000000e+00
         vertex 5.000000e-01 5.000000e-01 0.000000e+00
         vertex 1.000000e+00 2.450000e-01 0.000000e+00
      endloop
   endfacet
   facet normal 0.000000e+00 0.000000e+00 -1.000000e+00
      outer loop
         vertex 1.000000e+00 2.450000e-01 0.000000e+00
         vertex 5.000000e-01 5.000000e-01 0.000000e+00
         vertex 9.900000e-01 5.000000e-01 0.000000e+00
      endloop
   endfacet
   facet normal 0.000000e+00 0.000000e+00 -1.000000e+00
      outer loop
         vertex 1.000000e+00 2.450000e-01 0.000000e+00
         vertex 9.900000e-01 5.000000e-01 0.000000e+00
         vertex 1.000000e+00 2.550000e-01 0.000000e+00
      endloop
   endfacet
   facet normal 0.000000e+00 0.000000e+00 -1.000000e+00
      outer loop
         vertex 1.000000e+00 2.550000e-01 0.000000e+00
         vertex 9.900000e-01 5.000000e-01 0.000000e+00
         vertex 1.000000e+00 5.000000e-01 0.000000e+00
      endloop
   endfacet
endsolid temp